<svg xmlns="http://www.w3.org/2000/svg" xmlns:xlink="http://www.w3.org/1999/xlink" width="500" zoomAndPan="magnify" viewBox="0 0 375 374.999991" height="500" preserveAspectRatio="xMidYMid meet" version="1.0"><defs><clipPath id="id1"><path d="M 137.226562 114.214844 L 237.726562 114.214844 L 237.726562 221.464844 L 137.226562 221.464844 Z M 137.226562 114.214844 " clip-rule="nonzero"/></clipPath></defs><g clip-path="url(#id1)"><path fill="#f3f0ff" d="M 137.648438 191.132812 C 137.167969 210.410156 137.914062 218.011719 138.035156 220.265625 C 138.203125 223.308594 138.972656 219.351562 234.417969 220.71875 C 238.289062 220.769531 238.171875 220.191406 236.894531 185.355469 C 235.765625 154.902344 239.925781 162.070312 228.625 153.417969 C 226.582031 151.859375 227.566406 152.410156 226.992188 131.523438 C 226.917969 129.03125 227.136719 129.605469 216.074219 129.65625 C 214.054688 129.65625 215.210938 130.277344 214.632812 141.089844 C 214.152344 140.660156 190.976562 118.792969 185.925781 114.691406 C 182.703125 112.03125 178.785156 120.566406 154.984375 142.699219 C 131.085938 164.902344 138.636719 151.304688 137.648438 191.132812 Z M 179.917969 166.292969 C 183.957031 166.578125 184.917969 169.386719 186.335938 172.023438 C 188.1875 169.480469 190.351562 165.882812 194.535156 166.101562 C 201.648438 166.484375 202.707031 175.355469 200.398438 180.796875 C 197.273438 188.160156 196.410156 189.5 189.148438 197.941406 C 188.210938 199.019531 187.777344 199.019531 186.742188 198.15625 C 167.125 181.902344 166.574219 165.332031 179.917969 166.292969 Z M 179.917969 166.292969 " fill-opacity="1" fill-rule="nonzero"/></g></svg>